<?xml version="1.0" standalone="no"?>
<!DOCTYPE svg PUBLIC "-//W3C//DTD SVG 20010904//EN"
 "http://www.w3.org/TR/2001/REC-SVG-20010904/DTD/svg10.dtd">
<svg version="1.0" xmlns="http://www.w3.org/2000/svg"
 width="206.000000pt" height="252.000000pt" viewBox="0 0 206.000000 252.000000"
 preserveAspectRatio="xMidYMid meet">

<g transform="translate(0.000000,252.000000) scale(0.100000,-0.100000)"
fill="#000000" stroke="none">
<path d="M0 1260 l0 -1260 1030 0 1030 0 0 1260 0 1260 -1030 0 -1030 0 0
-1260z m1218 843 c73 -40 172 -166 172 -221 0 -14 -29 -59 -75 -115 -104 -127
-101 -152 34 -250 110 -79 148 -104 244 -158 57 -31 103 -69 172 -140 115
-119 121 -137 82 -251 -52 -150 -132 -242 -249 -287 -136 -52 -154 -62 -172
-92 -27 -46 -110 -106 -220 -159 -138 -66 -219 -84 -357 -78 -104 4 -114 7
-186 44 -100 52 -116 74 -117 161 -1 80 31 432 45 484 19 74 107 245 139 273
28 23 40 27 88 24 74 -4 79 -14 63 -118 -19 -114 5 -375 38 -414 37 -45 164
-18 240 50 62 56 81 96 81 174 0 70 -5 82 -69 163 -52 68 -103 100 -181 116
-100 21 -160 79 -201 197 -19 52 -21 73 -15 170 7 127 31 219 82 310 41 74 48
81 127 110 79 29 187 32 235 7z"/>
<path d="M975 2061 c-77 -34 -135 -130 -157 -258 -10 -61 -9 -83 5 -148 27
-127 93 -216 222 -302 75 -51 175 -154 204 -212 53 -102 37 -206 -42 -285 -70
-70 -132 -99 -213 -100 -55 -1 -67 2 -89 25 -34 33 -54 110 -61 234 -8 153 -7
149 -61 141 -67 -9 -120 -42 -142 -90 -10 -23 -24 -84 -31 -137 -11 -84 -10
-109 5 -190 59 -332 71 -348 244 -357 123 -6 214 18 379 98 138 67 153 83 198
217 55 163 28 316 -79 458 -33 45 -101 110 -186 181 -73 61 -148 130 -167 154
-62 78 -54 133 28 195 22 17 56 42 76 57 21 16 64 37 97 49 116 40 125 57 74
145 -70 123 -196 175 -304 125z"/>
<path d="M1202 1761 c-53 -18 -100 -51 -74 -51 34 0 102 24 128 45 35 30 19
31 -54 6z"/>
<path d="M1133 1679 c-84 -25 -10 -103 221 -234 27 -15 84 -60 126 -99 60 -56
90 -76 141 -94 35 -12 68 -22 73 -22 22 0 -54 64 -114 97 -90 49 -160 95 -261
169 -89 66 -120 110 -116 164 2 29 -18 34 -70 19z"/>
<path d="M1022 1637 c-27 -32 -33 -69 -16 -96 44 -67 117 -138 198 -194 107
-74 181 -159 239 -276 41 -83 42 -86 42 -190 0 -58 -4 -128 -8 -155 l-9 -49
44 7 c101 16 180 72 249 179 54 84 80 166 67 214 -5 21 -14 43 -20 50 -5 6
-70 38 -146 70 -122 52 -144 65 -212 128 -41 39 -97 83 -125 99 -163 94 -265
176 -265 214 0 16 -25 15 -38 -1z"/>
<path d="M820 1525 c0 -38 74 -136 121 -161 42 -21 43 -17 4 18 -20 17 -54 58
-76 90 -36 53 -49 67 -49 53z"/>
<path d="M761 1296 c-30 -16 -50 -52 -51 -88 0 -32 18 -35 82 -18 44 12 60 38
56 83 -3 28 -7 32 -33 34 -16 2 -41 -3 -54 -11z"/>
<path d="M575 606 c-9 -56 12 -123 45 -145 21 -14 23 -14 19 -1 -3 8 -14 54
-25 103 -10 48 -22 87 -26 87 -4 0 -10 -20 -13 -44z"/>
</g>
</svg>
